<svg width="35" height="35" viewBox="0 0 35 35" fill="none" xmlns="http://www.w3.org/2000/svg">
<path d="M33.5729 3.70654H1.42707C0.638918 3.70654 0 4.34546 0 5.13362V29.8668C0 30.655 0.638918 31.2939 1.42707 31.2939H33.5729C34.3611 31.2939 35 30.655 35 29.8668V5.13362C35 4.34546 34.3611 3.70654 33.5729 3.70654ZM32.1459 20.7866L26.2908 16.1711C25.7524 15.7477 24.9891 15.7665 24.4723 16.2159L17.8874 21.9242L9.19037 12.1222C8.91952 11.8163 8.53066 11.6411 8.12213 11.6411C7.72021 11.633 7.33422 11.7979 7.06202 12.0936L2.85415 16.6277V6.56069H32.1459V20.7866Z" fill="#7B7B7B"/>
<path d="M17.5001 7.4165C14.9082 7.4165 12.8071 9.51761 12.8071 12.1095C12.8094 14.7005 14.9092 16.8003 17.5001 16.8025C20.092 16.8025 22.1932 14.7014 22.1932 12.1095C22.1932 9.51761 20.092 7.4165 17.5001 7.4165Z" fill="#7B7B7B"/>
</svg>
