<svg width="35" height="35" viewBox="0 0 35 35" fill="none" xmlns="http://www.w3.org/2000/svg">
<path d="M35 3.46123C35 2.64511 34.3271 1.97217 33.5109 1.97217H11.9125C11.0963 1.97217 10.4234 2.64511 10.4234 3.46123V22.9264C9.36388 22.3465 8.08243 22.0029 6.70076 22.0029C2.97811 22.0029 0 24.4584 0 27.5152C0 30.5721 2.97811 33.0276 6.70076 33.0276C10.4234 33.0276 13.4015 30.5721 13.4015 27.5152V4.95028H32.0219V22.9264C30.9624 22.3465 29.6809 22.0029 28.2992 22.0029C24.5766 22.0029 21.5985 24.4584 21.5985 27.5152C21.5985 30.5721 24.5766 33.0276 28.2992 33.0276C32.0219 33.0276 35 30.5721 35 27.5152V3.46123ZM6.70076 30.1998C4.61751 30.1998 2.89937 29.0114 2.89937 27.594C2.89937 26.1765 4.61035 24.9881 6.70076 24.9881C8.78401 24.9881 10.5021 26.1765 10.5021 27.594C10.495 29.0043 8.78401 30.1998 6.70076 30.1998ZM28.2921 30.1998C26.2088 30.1998 24.4907 29.0114 24.4907 27.594C24.4907 26.1765 26.2017 24.9881 28.2921 24.9881C30.3037 24.9881 32.0935 26.1765 32.0935 27.594C32.0935 29.0043 30.3825 30.1998 28.2921 30.1998Z" fill="#7B7B7B"/>
</svg>
