<svg width="35" height="35" viewBox="0 0 35 35" fill="none" xmlns="http://www.w3.org/2000/svg">
<g clip-path="url(#clip0_155_128)">
<path d="M33.2085 13.8259L30.7518 13.4091C30.4959 12.583 30.1669 11.786 29.7648 11.0256L31.2125 9.00036C31.8266 8.13761 31.7316 6.96047 30.9785 6.21471L28.7997 4.03591C28.3903 3.62647 27.8492 3.39981 27.2716 3.39981C26.8183 3.39981 26.3869 3.53873 26.0214 3.80194L23.9888 5.2496C23.1991 4.83285 22.373 4.48921 21.5175 4.23331L21.1081 1.80592C20.9326 0.760388 20.0333 0 18.9731 0H15.895C14.8349 0 13.9356 0.760388 13.7601 1.80592L13.336 4.2918C12.5172 4.5477 11.7202 4.88403 10.9598 5.29347L8.94918 3.84581C8.58361 3.5826 8.14492 3.44368 7.69162 3.44368C7.11401 3.44368 6.56566 3.67033 6.16353 4.07977L3.97741 6.25858C3.23165 7.00434 3.12929 8.18148 3.74345 9.04423L5.20573 11.0987C4.8036 11.8664 4.4819 12.6634 4.23331 13.4896L1.80592 13.899C0.760388 14.0745 0 14.9738 0 16.0339V19.1121C0 20.1722 0.760388 21.0715 1.80592 21.247L4.2918 21.6711C4.5477 22.4899 4.88403 23.2869 5.29347 24.0473L3.85312 26.0506C3.23896 26.9133 3.33401 28.0905 4.08709 28.8363L6.26589 31.0151C6.67533 31.4245 7.21637 31.6511 7.79398 31.6511C8.24728 31.6511 8.67866 31.5122 9.04423 31.249L11.0987 29.7867C11.8372 30.1742 12.6122 30.4886 13.4091 30.7372L13.8186 33.1939C13.9941 34.2394 14.8934 34.9998 15.9535 34.9998H19.0389C20.0991 34.9998 20.9984 34.2394 21.1739 33.1939L21.5906 30.7372C22.4168 30.4813 23.2138 30.1523 23.9742 29.7502L25.9994 31.1978C26.365 31.4611 26.8037 31.6 27.257 31.6C27.8346 31.6 28.3756 31.3733 28.7851 30.9639L30.9639 28.7851C31.7096 28.0393 31.812 26.8622 31.1978 25.9994L29.7502 23.9668C30.1523 23.1991 30.4886 22.4022 30.7372 21.5833L33.1939 21.1739C34.2394 20.9984 34.9998 20.0991 34.9998 19.0389V15.9608C35.0144 14.9007 34.254 14.0014 33.2085 13.8259ZM33.0403 19.0389C33.0403 19.134 32.9745 19.2144 32.8795 19.229L29.8087 19.7408C29.4212 19.8066 29.1141 20.0918 29.019 20.4647C28.7412 21.5394 28.3171 22.5704 27.7468 23.5282C27.5494 23.8645 27.5641 24.2812 27.7907 24.6029L29.5966 27.1473C29.6478 27.2204 29.6405 27.3301 29.5747 27.3959L27.3959 29.5747C27.3447 29.6259 27.2935 29.6332 27.257 29.6332C27.2131 29.6332 27.1766 29.6186 27.1473 29.5966L24.6102 27.7907C24.2959 27.5641 23.8718 27.5494 23.5355 27.7468C22.5777 28.3171 21.5468 28.7412 20.472 29.019C20.0918 29.1141 19.8066 29.4285 19.7482 29.8087L19.229 32.8795C19.2144 32.9745 19.134 33.0403 19.0389 33.0403H15.9608C15.8658 33.0403 15.7854 32.9745 15.7707 32.8795L15.2589 29.8087C15.1931 29.4212 14.908 29.1141 14.5351 29.019C13.4896 28.7485 12.4806 28.3318 11.5374 27.7907C11.3839 27.703 11.2084 27.6591 11.0402 27.6591C10.8428 27.6591 10.6381 27.7176 10.47 27.8419L7.91096 29.6624C7.8744 29.6844 7.83784 29.699 7.80129 29.699C7.77204 29.699 7.71355 29.6917 7.66237 29.6405L5.48357 27.4617C5.41776 27.3959 5.41045 27.2935 5.46163 27.2131L7.26024 24.6907C7.4869 24.369 7.50152 23.9449 7.30411 23.6086C6.73382 22.6581 6.29514 21.6272 6.0173 20.5524C5.91494 20.1795 5.60786 19.8944 5.22767 19.8286L2.13494 19.3022C2.03989 19.2875 1.97408 19.2071 1.97408 19.1121V16.0339C1.97408 15.9389 2.03989 15.8585 2.13494 15.8439L5.1838 15.3321C5.5713 15.2662 5.8857 14.9811 5.98074 14.6009C6.25127 13.5261 6.66802 12.4879 7.231 11.5301C7.42841 11.1938 7.40647 10.777 7.17982 10.4626L5.35927 7.90365C5.30809 7.83053 5.3154 7.72086 5.38121 7.65506L7.56001 5.47626C7.61119 5.42508 7.66237 5.41776 7.69893 5.41776C7.7428 5.41776 7.77935 5.43239 7.8086 5.45432L10.331 7.25293C10.6527 7.47958 11.0768 7.49421 11.4131 7.2968C12.3636 6.72651 13.3945 6.28782 14.4693 6.00999C14.8422 5.90763 15.1273 5.60055 15.1931 5.22036L15.7196 2.12762C15.7342 2.03258 15.8146 1.96677 15.9097 1.96677H18.9878C19.0828 1.96677 19.1632 2.03258 19.1779 2.12762L19.6897 5.17649C19.7555 5.56399 20.0406 5.87838 20.4208 5.97343C21.5248 6.25127 22.5777 6.68264 23.5574 7.26024C23.8937 7.45765 24.3105 7.44303 24.6322 7.21637L27.1546 5.40314C27.1912 5.38121 27.2277 5.36658 27.2643 5.36658C27.2935 5.36658 27.352 5.3739 27.4032 5.42508L29.582 7.60388C29.6478 7.66968 29.6551 7.77204 29.6039 7.85247L27.798 10.3895C27.5714 10.7039 27.5568 11.128 27.7542 11.4643C28.3245 12.4221 28.7485 13.453 29.0263 14.5278C29.1214 14.908 29.4358 15.1931 29.816 15.2516L32.8868 15.7707C32.9818 15.7854 33.0476 15.8658 33.0476 15.9608V19.0389H33.0403Z" fill="#7C7C7C"/>
<path d="M17.5034 9.94336C13.3359 9.94336 9.95068 13.3285 9.95068 17.4961C9.95068 21.6636 13.3359 25.0488 17.5034 25.0488C21.6709 25.0488 25.0561 21.6636 25.0561 17.4961C25.0561 13.3285 21.6709 9.94336 17.5034 9.94336ZM17.5034 23.0747C14.4253 23.0747 11.9248 20.5742 11.9248 17.4961C11.9248 14.4179 14.4253 11.9174 17.5034 11.9174C20.5815 11.9174 23.082 14.4179 23.082 17.4961C23.082 20.5742 20.5815 23.0747 17.5034 23.0747Z" fill="#7C7C7C"/>
</g>
<defs>
<clipPath id="clip0_155_128">
<rect width="35" height="35" fill="white"/>
</clipPath>
</defs>
</svg>
