<svg width="35" height="35" viewBox="0 0 35 35" fill="none" xmlns="http://www.w3.org/2000/svg">
<path d="M29.9999 0H4.99993C4.6055 0 4.28564 0.319854 4.28564 0.714287V34.2857C4.28564 34.6801 4.6055 35 4.99993 35H20C20.0477 35 20.095 34.9951 20.1413 34.9858C20.1706 34.9798 20.1981 34.9694 20.226 34.9599C20.2421 34.9545 20.259 34.9514 20.2746 34.9448C20.3049 34.9322 20.3327 34.9154 20.3606 34.899C20.3727 34.8919 20.3857 34.8867 20.3974 34.879C20.4355 34.8534 20.4711 34.8242 20.5035 34.792C20.504 34.7916 20.5045 34.7912 20.505 34.7908L30.505 24.7907C30.5379 24.7579 30.5674 24.7216 30.5934 24.6829C30.6001 24.673 30.6043 24.6617 30.6104 24.6515C30.6282 24.622 30.6458 24.5923 30.6592 24.5602C30.6652 24.5457 30.668 24.5302 30.673 24.5155C30.683 24.4863 30.6938 24.4575 30.7 24.4269C30.7093 24.3807 30.7142 24.3334 30.7142 24.2856V0.714287C30.7142 0.319854 30.3944 0 29.9999 0ZM20.7142 32.5612V25H28.2755L20.7142 32.5612ZM29.2856 23.5714H19.9999C19.6055 23.5714 19.2856 23.8913 19.2856 24.2857V33.5714H5.71422V1.42857H29.2856V23.5714Z" fill="#7B7B7B"/>
<path d="M16.2195 9.49477C15.9409 9.21593 15.4881 9.21593 15.2095 9.49477L12.8574 11.8469V3.57129H11.4288V11.8469L9.07671 9.49477C8.79808 9.21593 8.34534 9.21593 8.0667 9.49477C7.78766 9.77381 7.78766 10.2259 8.0667 10.505L11.6381 14.0764C11.7775 14.2159 11.9604 14.2856 12.1432 14.2856C12.3259 14.2856 12.5089 14.2159 12.6482 14.0764L16.2197 10.505C16.4986 10.2259 16.4986 9.77374 16.2195 9.49477Z" fill="#7B7B7B"/>
</svg>
